<?xml version="1.0" standalone="no"?>
<!DOCTYPE svg PUBLIC "-//W3C//DTD SVG 20010904//EN"
 "http://www.w3.org/TR/2001/REC-SVG-20010904/DTD/svg10.dtd">
<svg version="1.0" xmlns="http://www.w3.org/2000/svg"
 width="700.000000pt" height="700.000000pt" viewBox="0 0 700.000000 700.000000"
 preserveAspectRatio="xMidYMid meet">
<metadata>
Created by potrace 1.14, written by Peter Selinger 2001-2017
</metadata>
<g transform="translate(0.000000,700.000000) scale(0.100000,-0.100000)"
fill="#000000" stroke="none">
<path d="M570 5589 c-247 -48 -478 -257 -540 -490 -7 -24 -15 -53 -18 -64 -4
-11 -8 -693 -9 -1515 -3 -1680 -7 -1573 72 -1730 33 -68 116 -177 155 -206 8
-7 29 -24 45 -38 50 -43 178 -105 262 -125 74 -19 116 -20 888 -18 756 2 814
4 865 21 163 54 272 129 372 256 31 39 89 150 156 300 254 568 255 570 314
641 90 109 214 170 353 175 145 5 255 -42 363 -153 60 -62 92 -119 175 -303
201 -452 265 -588 299 -639 100 -144 284 -262 456 -290 62 -11 1623 -10 1657
1 11 3 40 11 64 18 91 24 221 101 293 173 73 73 134 172 174 283 l29 79 0
1525 c0 1450 -1 1528 -18 1590 -45 156 -161 321 -280 395 -18 10 -34 22 -37
25 -7 8 -118 57 -177 78 -45 16 -244 17 -2958 18 -1632 1 -2930 -2 -2955 -7z
m1290 -1234 c156 -24 276 -87 391 -206 263 -270 264 -672 2 -956 -193 -209
-532 -276 -793 -156 -66 31 -166 102 -211 150 -52 56 -109 133 -109 147 0 5
-6 17 -14 25 -7 9 -21 39 -30 66 -77 222 -52 446 69 630 111 167 298 282 490
302 28 3 51 6 53 8 4 4 107 -2 152 -10z m3501 1 c353 -55 611 -376 585 -730
-12 -171 -81 -320 -205 -444 -276 -276 -709 -275 -986 3 -130 131 -195 281
-200 465 -5 157 29 283 106 399 155 232 422 349 700 307z"/>
</g>
</svg>
